ffmpeg started on 2016-11-24 at 02:13:06
Report written to "Output/NVENCh264/results/ffmpeg/sintelfast13000k.log"
Command line:
Tools/ffmpeg/ffmpeg -benchmark -y -i Input/y4m/sintel.y4m -c:v h264_nvenc -preset fast -b:v 13000k -an Output/NVENCh264/encoded/sintelfast13000k.mkv
ffmpeg version N-82227-gdb23fde Copyright (c) 2000-2016 the FFmpeg developers
  built with gcc 5.4.0 (Ubuntu 5.4.0-6ubuntu1~16.04.2) 20160609
  configuration: --prefix=/home/jaroslav/ffmpeg_build --pkg-config-flags=--static --extra-cflags=-I/home/jaroslav/ffmpeg_build/include --extra-ldflags=-L/home/jaroslav/ffmpeg_build/lib --bindir=/home/jaroslav/bin --enable-gpl --enable-libass --enable-libfdk-aac --enable-libfreetype --enable-libmp3lame --enable-libopus --enable-libtheora --enable-libvorbis --enable-libvpx --enable-libx264 --enable-libx265 --enable-nvenc --enable-libmfx --enable-libxvid --enable-libgsm --enable-libopencore-amrnb --enable-version3 --enable-nonfree
  libavutil      55. 35.100 / 55. 35.100
  libavcodec     57. 66.101 / 57. 66.101
  libavformat    57. 57.100 / 57. 57.100
  libavdevice    57.  2.100 / 57.  2.100
  libavfilter     6. 66.100 /  6. 66.100
  libswscale      4.  3.100 /  4.  3.100
  libswresample   2.  4.100 /  2.  4.100
  libpostproc    54.  2.100 / 54.  2.100
Input #0, yuv4mpegpipe, from 'Input/y4m/sintel.y4m':
  Duration: 00:00:20.83, start: 0.000000, bitrate: 2057307 kb/s
    Stream #0:0: Video: rawvideo (I420 / 0x30323449), yuv420p(progressive), 4096x1744, SAR 1:1 DAR 256:109, 24 fps, 24 tbr, 24 tbn, 24 tbc
Output #0, matroska, to 'Output/NVENCh264/encoded/sintelfast13000k.mkv':
  Metadata:
    encoder         : Lavf57.57.100
    Stream #0:0: Video: h264 (h264_nvenc) (Main) (H264 / 0x34363248), yuv420p, 4096x1744 [SAR 1:1 DAR 256:109], q=-1--1, 13000 kb/s, 24 fps, 1k tbn, 24 tbc
    Metadata:
      encoder         : Lavc57.66.101 h264_nvenc
    Side data:
      cpb: bitrate max/min/avg: 0/0/13000000 buffer size: 26000000 vbv_delay: -1
Stream mapping:
  Stream #0:0 -> #0:0 (rawvideo (native) -> h264 (h264_nvenc))
Press [q] to stop, [?] for help
frame=   18 fps=0.0 q=0.0 size=       0kB time=00:00:00.00 bitrate=N/A speed=   0x    frame=   39 fps= 38 q=32.0 size=       1kB time=00:00:00.33 bitrate=  17.6kbits/s speed=0.328x    frame=   60 fps= 39 q=34.0 size=       1kB time=00:00:01.20 bitrate=   4.9kbits/s speed=0.792x    frame=   81 fps= 40 q=32.0 size=       1kB time=00:00:02.08 bitrate=   2.8kbits/s speed=1.02x    frame=  101 fps= 40 q=33.0 size=    5157kB time=00:00:02.91 bitrate=14477.3kbits/s speed=1.15x    frame=  122 fps= 40 q=32.0 size=    5157kB time=00:00:03.79 bitrate=11137.5kbits/s speed=1.25x    frame=  143 fps= 40 q=30.0 size=    5157kB time=00:00:04.66 bitrate=9049.8kbits/s speed=1.31x    frame=  164 fps= 40 q=32.0 size=    8077kB time=00:00:05.54 bitrate=11937.2kbits/s speed=1.36x    frame=  173 fps= 25 q=31.0 size=    8077kB time=00:00:05.91 bitrate=11180.8kbits/s speed=0.867x    frame=  174 fps= 17 q=32.0 size=    8077kB time=00:00:05.95 bitrate=11103.9kbits/s speed=0.576x    frame=  175 fps= 14 q=32.0 size=    8077kB time=00:00:06.00 bitrate=11026.1kbits/s speed=0.482x    frame=  196 fps= 15 q=31.0 size=    8077kB time=00:00:06.87 bitrate=9623.0kbits/s speed=0.53x    frame=  217 fps= 16 q=32.0 size=    8077kB time=00:00:07.75 bitrate=8536.7kbits/s speed=0.575x    frame=  237 fps= 17 q=32.0 size=   13231kB time=00:00:08.58 bitrate=12626.7kbits/s speed=0.614x    frame=  258 fps= 18 q=32.0 size=   13231kB time=00:00:09.45 bitrate=11458.6kbits/s speed=0.653x    frame=  279 fps= 19 q=30.0 size=   13231kB time=00:00:10.33 bitrate=10488.4kbits/s speed=0.69x    frame=  299 fps= 19 q=30.0 size=   16815kB time=00:00:11.16 bitrate=12334.1kbits/s speed=0.721x    frame=  320 fps= 20 q=30.0 size=   16815kB time=00:00:12.04 bitrate=11437.9kbits/s speed=0.752x    frame=  341 fps= 21 q=28.0 size=   16815kB time=00:00:12.91 bitrate=10663.2kbits/s speed=0.782x    frame=  362 fps= 21 q=27.0 size=   16815kB time=00:00:13.79 bitrate=9986.7kbits/s speed=0.81x    frame=  383 fps= 22 q=26.0 size=   16815kB time=00:00:14.66 bitrate=9391.0kbits/s speed=0.837x    frame=  404 fps= 22 q=26.0 size=   21978kB time=00:00:15.54 bitrate=11583.4kbits/s speed=0.861x    frame=  425 fps= 23 q=26.0 size=   21978kB time=00:00:16.41 bitrate=10966.1kbits/s speed=0.884x    frame=  446 fps= 23 q=27.0 size=   21978kB time=00:00:17.29 bitrate=10411.2kbits/s speed=0.907x    frame=  467 fps= 24 q=27.0 size=   25026kB time=00:00:18.16 bitrate=11284.3kbits/s speed=0.927x    frame=  488 fps= 24 q=27.0 size=   25026kB time=00:00:19.04 bitrate=10765.8kbits/s speed=0.947x    frame=  500 fps= 24 q=27.0 Lsize=   30997kB time=00:00:20.79 bitrate=12212.1kbits/s speed=1.02x    
video:30992kB audio:0kB subtitle:0kB other streams:0kB global headers:0kB muxing overhead: 0.015724%
bench: utime=0.884s
bench: maxrss=838768kB
